<?xml version="1.0" ?><svg baseProfile="tiny" height="32px" id="Layer_1" version="1.2" viewBox="0 0 32 32" width="32px" xml:space="preserve" xmlns="http://www.w3.org/2000/svg" xmlns:xlink="http://www.w3.org/1999/xlink"><path d="M7.359,22.849c-0.005,0.051-0.007,0.088-0.007,0.088C7.343,22.905,7.347,22.876,7.359,22.849z M2.487,21.981  c0.198,0.092,1.691-0.58,2.362-1.355c0.67-0.777,1.828-2.256,2.239-2.834c0.411-0.58,0.168-0.564,0.32-0.809  s0.486-1.461,0.486-1.461s-1.706-0.474-1.903-1.067c0,0,1.539-1.6,3.261-2.88c1.721-1.28,3.123-1.478,4.083-1.219  c0.959,0.259,3.246,1.249,2.864,1.935c-0.381,0.686-0.731,1.524-0.381,1.417c0.351-0.106,1.082-2.179,1.736-2.56  c0.656-0.381,1.113,0.076,1.113,0.076s0.853-0.99,2.255-1.066c1.401-0.076,1.691,1.006,2.14,0.96c0,0,0.679-1.265,2.316-0.77  c0,0-1.104-1.006-1.074-1.348c0,0,2.936,0.508,4.581,3.087c1.646,2.58,2.032,3.819,1.747,4.388c0,0-1.036-3.453-2.479-4.835  c-1.442-1.381-2.275-2.011-3.331-2.255c0,0,1.317,1.077,1.6,1.808c0,0,0.914,0.884,1.219,2.209c0.305,1.325-0.335,1.751-0.427,1.751  c-0.091,0,0.777,0.792-0.29,1.448c0,0,0.123-0.823-0.563-1.021c-0.686-0.198-0.64,0.519-0.64,0.519s-0.244-0.412,0.138-0.656  c0,0-1.036-0.351-1.6-0.686c0,0,1.096,2.802,0.975,3.123c-0.122,0.32-0.016,0.336-0.016,0.336s0.595,0.578,0.869,1.098  c0.273,0.518,1.66,2.514,3.215,2.895c1.554,0.381,0.929,0.289,0.533,0.289c-0.396,0-1.798-0.273-2.637-1.25  c-0.838-0.975-1.554-2.391-1.889-2.68c-0.335-0.291-0.533-0.32-0.533-0.32s-0.184,0.213-0.016,0.715c0,0-0.35-0.395-0.152-1.066  c0,0-0.32-1.888-0.609-2.772s-0.868-1.54-0.868-1.738c0-0.198-0.747,0.32-1.326,0.701c-0.578,0.382-1.203,0.854-1.66,0.854  s-0.641-0.091-0.777-0.091s-0.366,0.061-0.228-0.32c0.136-0.381,0.654-1.539,0.716-1.615c0.061-0.076-0.945,0.944-1.433,1.173  c0,0-0.163,0.925-1.209,0.996c0,0-0.183,0.03-0.427-0.051s-0.68-0.224-0.924-0.092s-0.549,0-0.549,0s-0.803,0.071-1.178-0.01  c0,0-1.169,0.771-1.91,0.842c0,0-0.162,2.053-0.203,2.459l-0.152-0.346c0,0-0.233,0.102-0.244,0.131  c-0.01,0.031-1.63,3.566-4.007,4.633c0,0-0.21,0.08-0.263,0.197c0.01-0.102,0.031-0.256,0.075-0.287  c0.065-0.053-0.29,0.061-0.31,0.176c0,0-0.026-0.314,0.345-0.279c0,0,1.772-0.863,2.95-2.834c1.179-1.971,1.179-1.971,1.179-1.971  v-1.767c0,0-1.402,0.396-2.955-0.106c0,0-0.625,1.264-0.9,1.95l0.017-0.35c0,0-0.229,0.045-0.26,0.137  c-0.03,0.092-0.518,1.189-2.179,2.91c-1.66,1.723-2.712,1.723-2.864,1.783s-0.229,0.168-0.229,0.168s0.046-0.244,0.091-0.244  c0.046,0-0.106-0.152-0.213-0.121C2,22.042,2,22.042,2,22.042S2.29,21.89,2.487,21.981z M21.827,13.367  c0.376-0.213,1.158-0.264,1.158-0.264c-0.147-0.285-0.082-1.402-0.082-1.402l0.041-0.03c-0.193-0.132-0.396,0.111-0.711,0.447  c-0.314,0.335-1.168,0.833-1.168,0.833s0.04,0.122,0.081,0.315c0.041,0.193-0.416,0.619-0.416,0.619S21.451,13.581,21.827,13.367z"/></svg>